<svg width="15" height="15" viewBox="0 0 15 15" fill="none" xmlns="http://www.w3.org/2000/svg">
<path d="M12.1875 0C12.9622 0 13.6247 0.275065 14.1748 0.825195C14.7249 1.37533 15 2.03776 15 2.8125V12.1875C15 12.9622 14.7249 13.6247 14.1748 14.1748C13.6247 14.7249 12.9622 15 12.1875 15H10.3516V9.18945H12.2949L12.5879 6.92383H10.3516V5.47852C10.3516 5.11393 10.4281 4.84049 10.5811 4.6582C10.734 4.47591 11.0319 4.38477 11.4746 4.38477L12.666 4.375V2.35352C12.2559 2.29492 11.6764 2.26562 10.9277 2.26562C10.0423 2.26562 9.33431 2.52604 8.80371 3.04688C8.27311 3.56771 8.00781 4.30339 8.00781 5.25391V6.92383H6.05469V9.18945H8.00781V15H2.8125C2.03776 15 1.37533 14.7249 0.825195 14.1748C0.275065 13.6247 0 12.9622 0 12.1875V2.8125C0 2.03776 0.275065 1.37533 0.825195 0.825195C1.37533 0.275065 2.03776 0 2.8125 0H12.1875Z" fill="white"/>
</svg>
