<svg width="15" height="15" viewBox="0 0 15 15" fill="none" xmlns="http://www.w3.org/2000/svg">
<path d="M10 7.5C10 6.8099 9.75586 6.2207 9.26758 5.73242C8.7793 5.24414 8.1901 5 7.5 5C6.8099 5 6.2207 5.24414 5.73242 5.73242C5.24414 6.2207 5 6.8099 5 7.5C5 8.1901 5.24414 8.7793 5.73242 9.26758C6.2207 9.75586 6.8099 10 7.5 10C8.1901 10 8.7793 9.75586 9.26758 9.26758C9.75586 8.7793 10 8.1901 10 7.5ZM11.3477 7.5C11.3477 8.56771 10.9733 9.47591 10.2246 10.2246C9.47591 10.9733 8.56771 11.3477 7.5 11.3477C6.43229 11.3477 5.52409 10.9733 4.77539 10.2246C4.02669 9.47591 3.65234 8.56771 3.65234 7.5C3.65234 6.43229 4.02669 5.52409 4.77539 4.77539C5.52409 4.02669 6.43229 3.65234 7.5 3.65234C8.56771 3.65234 9.47591 4.02669 10.2246 4.77539C10.9733 5.52409 11.3477 6.43229 11.3477 7.5ZM12.4023 3.49609C12.4023 3.74349 12.3145 3.95508 12.1387 4.13086C11.9629 4.30664 11.7513 4.39453 11.5039 4.39453C11.2565 4.39453 11.0449 4.30664 10.8691 4.13086C10.6934 3.95508 10.6055 3.74349 10.6055 3.49609C10.6055 3.2487 10.6934 3.03711 10.8691 2.86133C11.0449 2.68555 11.2565 2.59766 11.5039 2.59766C11.7513 2.59766 11.9629 2.68555 12.1387 2.86133C12.3145 3.03711 12.4023 3.2487 12.4023 3.49609ZM7.5 1.34766C7.45443 1.34766 7.2054 1.34603 6.75293 1.34277C6.30046 1.33952 5.95703 1.33952 5.72266 1.34277C5.48828 1.34603 5.17415 1.35579 4.78027 1.37207C4.38639 1.38835 4.05111 1.4209 3.77441 1.46973C3.49772 1.51855 3.26497 1.57878 3.07617 1.65039C2.75065 1.7806 2.46419 1.9694 2.2168 2.2168C1.9694 2.46419 1.7806 2.75065 1.65039 3.07617C1.57878 3.26497 1.51855 3.49772 1.46973 3.77441C1.4209 4.05111 1.38835 4.38639 1.37207 4.78027C1.35579 5.17415 1.34603 5.48828 1.34277 5.72266C1.33952 5.95703 1.33952 6.30046 1.34277 6.75293C1.34603 7.2054 1.34766 7.45443 1.34766 7.5C1.34766 7.54557 1.34603 7.7946 1.34277 8.24707C1.33952 8.69954 1.33952 9.04297 1.34277 9.27734C1.34603 9.51172 1.35579 9.82585 1.37207 10.2197C1.38835 10.6136 1.4209 10.9489 1.46973 11.2256C1.51855 11.5023 1.57878 11.735 1.65039 11.9238C1.7806 12.2493 1.9694 12.5358 2.2168 12.7832C2.46419 13.0306 2.75065 13.2194 3.07617 13.3496C3.26497 13.4212 3.49772 13.4814 3.77441 13.5303C4.05111 13.5791 4.38639 13.6117 4.78027 13.6279C5.17415 13.6442 5.48828 13.654 5.72266 13.6572C5.95703 13.6605 6.30046 13.6605 6.75293 13.6572C7.2054 13.654 7.45443 13.6523 7.5 13.6523C7.54557 13.6523 7.7946 13.654 8.24707 13.6572C8.69954 13.6605 9.04297 13.6605 9.27734 13.6572C9.51172 13.654 9.82585 13.6442 10.2197 13.6279C10.6136 13.6117 10.9489 13.5791 11.2256 13.5303C11.5023 13.4814 11.735 13.4212 11.9238 13.3496C12.2493 13.2194 12.5358 13.0306 12.7832 12.7832C13.0306 12.5358 13.2194 12.2493 13.3496 11.9238C13.4212 11.735 13.4814 11.5023 13.5303 11.2256C13.5791 10.9489 13.6117 10.6136 13.6279 10.2197C13.6442 9.82585 13.654 9.51172 13.6572 9.27734C13.6605 9.04297 13.6605 8.69954 13.6572 8.24707C13.654 7.7946 13.6523 7.54557 13.6523 7.5C13.6523 7.45443 13.654 7.2054 13.6572 6.75293C13.6605 6.30046 13.6605 5.95703 13.6572 5.72266C13.654 5.48828 13.6442 5.17415 13.6279 4.78027C13.6117 4.38639 13.5791 4.05111 13.5303 3.77441C13.4814 3.49772 13.4212 3.26497 13.3496 3.07617C13.2194 2.75065 13.0306 2.46419 12.7832 2.2168C12.5358 1.9694 12.2493 1.7806 11.9238 1.65039C11.735 1.57878 11.5023 1.51855 11.2256 1.46973C10.9489 1.4209 10.6136 1.38835 10.2197 1.37207C9.82585 1.35579 9.51172 1.34603 9.27734 1.34277C9.04297 1.33952 8.69954 1.33952 8.24707 1.34277C7.7946 1.34603 7.54557 1.34766 7.5 1.34766ZM15 7.5C15 8.99089 14.9837 10.0228 14.9512 10.5957C14.8861 11.9499 14.4824 12.998 13.7402 13.7402C12.998 14.4824 11.9499 14.8861 10.5957 14.9512C10.0228 14.9837 8.99089 15 7.5 15C6.00911 15 4.97721 14.9837 4.4043 14.9512C3.05013 14.8861 2.00195 14.4824 1.25977 13.7402C0.517578 12.998 0.113932 11.9499 0.0488281 10.5957C0.016276 10.0228 0 8.99089 0 7.5C0 6.00911 0.016276 4.97721 0.0488281 4.4043C0.113932 3.05013 0.517578 2.00195 1.25977 1.25977C2.00195 0.517578 3.05013 0.113932 4.4043 0.0488281C4.97721 0.016276 6.00911 0 7.5 0C8.99089 0 10.0228 0.016276 10.5957 0.0488281C11.9499 0.113932 12.998 0.517578 13.7402 1.25977C14.4824 2.00195 14.8861 3.05013 14.9512 4.4043C14.9837 4.97721 15 6.00911 15 7.5Z" fill="white"/>
</svg>
