<svg width="19" height="15" viewBox="0 0 19 15" fill="none" xmlns="http://www.w3.org/2000/svg">
<g clip-path="url(#clip0)">
<path d="M18.6094 1.78125C18.0859 2.54688 17.4531 3.19922 16.7109 3.73828C16.7188 3.84766 16.7227 4.01172 16.7227 4.23047C16.7227 5.24609 16.5742 6.25977 16.2773 7.27148C15.9805 8.2832 15.5293 9.25391 14.9238 10.1836C14.3184 11.1133 13.5977 11.9355 12.7617 12.6504C11.9258 13.3652 10.918 13.9355 9.73828 14.3613C8.55859 14.7871 7.29687 15 5.95312 15C3.83594 15 1.89844 14.4336 0.140625 13.3008C0.414063 13.332 0.71875 13.3477 1.05469 13.3477C2.8125 13.3477 4.37891 12.8086 5.75391 11.7305C4.93359 11.7148 4.19922 11.4629 3.55078 10.9746C2.90234 10.4863 2.45703 9.86328 2.21484 9.10547C2.47266 9.14453 2.71094 9.16406 2.92969 9.16406C3.26562 9.16406 3.59766 9.12109 3.92578 9.03516C3.05078 8.85547 2.32617 8.41992 1.75195 7.72852C1.17773 7.03711 0.890625 6.23438 0.890625 5.32031V5.27344C1.42187 5.57031 1.99219 5.73047 2.60156 5.75391C2.08594 5.41016 1.67578 4.96094 1.37109 4.40625C1.06641 3.85156 0.914062 3.25 0.914062 2.60156C0.914062 1.91406 1.08594 1.27734 1.42969 0.691406C2.375 1.85547 3.52539 2.78711 4.88086 3.48633C6.23633 4.18555 7.6875 4.57422 9.23438 4.65234C9.17187 4.35547 9.14062 4.06641 9.14062 3.78516C9.14062 2.73828 9.50977 1.8457 10.248 1.10742C10.9863 0.369141 11.8789 0 12.9258 0C14.0195 0 14.9414 0.398438 15.6914 1.19531C16.543 1.03125 17.3438 0.726562 18.0938 0.28125C17.8047 1.17969 17.25 1.875 16.4297 2.36719C17.1562 2.28906 17.8828 2.09375 18.6094 1.78125Z" fill="white"/>
</g>
<defs>
<clipPath id="clip0">
<rect width="18.75" height="15" fill="white"/>
</clipPath>
</defs>
</svg>
