<svg width="15" height="15" viewBox="0 0 15 15" fill="none" xmlns="http://www.w3.org/2000/svg">
<g clip-path="url(#clip0)">
<path d="M9.8584 4.6875C9.43359 2.07129 8.43164 0.234375 7.26562 0.234375C6.09961 0.234375 5.09766 2.07129 4.67285 4.6875H9.8584ZM4.45312 7.5C4.45312 8.15039 4.48828 8.77441 4.5498 9.375H9.97852C10.04 8.77441 10.0752 8.15039 10.0752 7.5C10.0752 6.84961 10.04 6.22559 9.97852 5.625H4.5498C4.48828 6.22559 4.45312 6.84961 4.45312 7.5ZM13.9658 4.6875C13.1279 2.69824 11.4316 1.16016 9.33691 0.539062C10.0518 1.5293 10.5439 3.02051 10.8018 4.6875H13.9658ZM5.19141 0.539062C3.09961 1.16016 1.40039 2.69824 0.56543 4.6875H3.72949C3.98438 3.02051 4.47656 1.5293 5.19141 0.539062V0.539062ZM14.2793 5.625H10.9189C10.9805 6.24023 11.0156 6.87012 11.0156 7.5C11.0156 8.12988 10.9805 8.75977 10.9189 9.375H14.2764C14.4375 8.77441 14.5283 8.15039 14.5283 7.5C14.5283 6.84961 14.4375 6.22559 14.2793 5.625ZM3.51562 7.5C3.51562 6.87012 3.55078 6.24023 3.6123 5.625H0.251953C0.09375 6.22559 0 6.84961 0 7.5C0 8.15039 0.09375 8.77441 0.251953 9.375H3.60937C3.55078 8.75977 3.51562 8.12988 3.51562 7.5V7.5ZM4.67285 10.3125C5.09766 12.9287 6.09961 14.7656 7.26562 14.7656C8.43164 14.7656 9.43359 12.9287 9.8584 10.3125H4.67285ZM9.33984 14.4609C11.4316 13.8398 13.1309 12.3018 13.9687 10.3125H10.8047C10.5469 11.9795 10.0547 13.4707 9.33984 14.4609ZM0.56543 10.3125C1.40332 12.3018 3.09961 13.8398 5.19434 14.4609C4.47949 13.4707 3.9873 11.9795 3.72949 10.3125H0.56543V10.3125Z" fill="white"/>
</g>
<defs>
<clipPath id="clip0">
<rect width="14.5312" height="15" fill="white"/>
</clipPath>
</defs>
</svg>
